<svg fill="#172b4d" width="20px" height="20px" viewBox="0 0 1024 1024" xmlns="http://www.w3.org/2000/svg"><g id="SVGRepo_bgCarrier" stroke-width="2.5"></g><g id="SVGRepo_tracerCarrier" stroke-linecap="round" stroke-linejoin="round"></g><g id="SVGRepo_iconCarrier"><path fill-rule="evenodd" clip-rule="evenodd" d="M384 512c0 28.3-22.9 51.2-51.2 51.2s-51.2-22.9-51.2-51.2 22.9-51.2 51.2-51.2S384 483.7 384 512zm128-51.2c-28.3 0-51.2 22.9-51.2 51.2s22.9 51.2 51.2 51.2 51.2-22.9 51.2-51.2-22.9-51.2-51.2-51.2zm179.2 0c-28.3 0-51.2 22.9-51.2 51.2s22.9 51.2 51.2 51.2 51.2-22.9 51.2-51.2-22.9-51.2-51.2-51.2z"></path></g></svg>